<svg xmlns="http://www.w3.org/2000/svg" viewBox="0 0 320 200">
  <rect width="320" height="200" fill="#F2EDE8"/>
  <rect x="120" y="32" width="80" height="10" rx="2" fill="#1E2730"/>
  <g>
    <rect x="28" y="70" width="80" height="100" rx="8" fill="#FBF8F4" stroke="#C8BFB6"/>
    <rect x="56" y="88" width="24" height="24" rx="4" fill="#4A8C8C"/>
    <rect x="44" y="124" width="48" height="8" rx="2" fill="#1E2730" opacity="0.7"/>
    <rect x="40" y="140" width="56" height="6" rx="2" fill="#1E2730" opacity="0.4"/>
    <rect x="40" y="152" width="56" height="6" rx="2" fill="#1E2730" opacity="0.4"/>
  </g>
  <g>
    <rect x="120" y="70" width="80" height="100" rx="8" fill="#FBF8F4" stroke="#C8BFB6"/>
    <rect x="148" y="88" width="24" height="24" rx="4" fill="#4A8C8C"/>
    <rect x="136" y="124" width="48" height="8" rx="2" fill="#1E2730" opacity="0.7"/>
    <rect x="132" y="140" width="56" height="6" rx="2" fill="#1E2730" opacity="0.4"/>
    <rect x="132" y="152" width="56" height="6" rx="2" fill="#1E2730" opacity="0.4"/>
  </g>
  <g>
    <rect x="212" y="70" width="80" height="100" rx="8" fill="#FBF8F4" stroke="#C8BFB6"/>
    <rect x="240" y="88" width="24" height="24" rx="4" fill="#4A8C8C"/>
    <rect x="228" y="124" width="48" height="8" rx="2" fill="#1E2730" opacity="0.7"/>
    <rect x="224" y="140" width="56" height="6" rx="2" fill="#1E2730" opacity="0.4"/>
    <rect x="224" y="152" width="56" height="6" rx="2" fill="#1E2730" opacity="0.4"/>
  </g>
</svg>
